<?xml version="1.0" encoding="utf-8"?>
<!-- Generator: Adobe Illustrator 24.2.3, SVG Export Plug-In . SVG Version: 6.00 Build 0)  -->
<svg version="1.1" id="Layer_1" xmlns="http://www.w3.org/2000/svg" xmlns:xlink="http://www.w3.org/1999/xlink" x="0px" y="0px"
	 viewBox="0 0 795 564" style="enable-background:new 0 0 795 564;" xml:space="preserve">
<style type="text/css">
	.st0{fill:#201D1E;}
	.st1{fill:#EF4B24;}
	.st2{fill:#F79421;}
</style>
<g>
	<g>
		<g>
			<g>
				<g>
					<path class="st0" d="M297,439.7l-15.8,40.6l-4.8-3.2l4-9.9l-9.7-6.5l-7.6,7.4l-4.8-3.2l31.6-30L297,439.7z M282.4,462.3
						l8.5-21.2l-16.4,15.9L282.4,462.3z"/>
				</g>
				<g>
					<path class="st0" d="M334.3,486.2l-0.8,2.1c-3.4,9.1-9.5,11.9-16.8,9.2c-7.3-2.7-10-8.9-6.6-18l5.1-13.7
						c3.4-9.1,9.5-11.9,16.8-9.2s10,8.9,6.6,18l-0.6,1.6l-5.3-2l0.6-1.6c2.4-6.4,0.9-9.6-3.2-11.1c-4-1.5-7.3-0.1-9.7,6.3l-5.1,13.7
						c-2.4,6.4-0.9,9.6,3.2,11.1c4,1.5,7.3,0.1,9.7-6.3l0.8-2.1L334.3,486.2z"/>
				</g>
				<g>
					<path class="st0" d="M377.7,468l4.1,43.4l-5.7-0.7l-0.9-10.6l-11.6-1.5l-3.5,10.1l-5.7-0.7l14.8-41L377.7,468z M374.8,494.7
						l-1.8-22.7l-7.5,21.6L374.8,494.7z"/>
				</g>
				<g>
					<path class="st0" d="M455.2,504.2l-18.5-34.8l10.2,37.1l-5,1.4l-11.3-41l9.3-2.6l16.8,31.7l-2-35.8l9.5-2.6l11.3,41l-5.5,1.5
						l-10.2-36.9l1.9,39.2L455.2,504.2z"/>
				</g>
				<g>
					<path class="st0" d="M504.3,465.8l2.1,18.4l-5.3,3.1l-2-24.1l-18.9-13l5.3-3.1l13.9,10.3l-2.1-17.2l5.3-3.1l2,22.8l20,13.6
						l-5.3,3.1L504.3,465.8z"/>
				</g>
			</g>
		</g>
		<g>
			<g>
				<g>
					<path class="st1" d="M257,132l3.4,3.2c8,7.3,8,15.2,1.6,22.2c-6.4,7-14.3,7.6-22.2,0.2l-11.9-11c-8-7.3-8-15.2-1.6-22.2
						c6.4-7,14.3-7.6,22.2-0.2l3,2.7l-7.2,7.8l-3.2-3c-3.8-3.5-6.2-3.4-8.2-1.2c-1.9,2.1-1.9,4.6,1.9,8.1l12.4,11.4
						c3.7,3.5,6.2,3.4,8.2,1.2c2-2.2,1.9-4.6-1.9-8.1l-3.7-3.4L257,132z"/>
				</g>
				<g>
					<path class="st1" d="M276.6,141.1l-27.4-37.8l8.6-6.2l10.7,14.7l7.6-5.5l-10.7-14.7l8.6-6.2l27.4,37.8l-8.6,6.2l-11.4-15.7
						l-7.6,5.5l11.4,15.7L276.6,141.1z"/>
				</g>
				<g>
					<path class="st1" d="M308.3,119.7L287,78.2l9.4-4.8l21.3,41.5L308.3,119.7z"/>
				</g>
				<g>
					<path class="st1" d="M346.7,103.5l-21.9,7.9L309,67.5l9.9-3.6l12.8,35.4l11.9-4.3L346.7,103.5z"/>
				</g>
				<g>
					<path class="st1" d="M364.1,52.5l15.6,44.6l-10,1.8l-2.6-8.1l-8.4,1.5l0.4,8.5l-10,1.8l-1.1-47.2L364.1,52.5z M364.3,82.5
						l-7.1-21.8l1,22.9L364.3,82.5z"/>
				</g>
				<g>
					<path class="st1" d="M383.5,81.6l0.1-16.2c0.1-10.8,5.9-16.1,15.4-16.1c9.5,0.1,15.2,5.5,15.1,16.3L414,80.6c0,4-1,7.3-3.2,9.4
						l4.1,7.1l-8.3-0.1l-2-3.1c-1.2,2.9-4.2,4-7.5,4C388.9,97.8,383.4,92.4,383.5,81.6z M400.7,88.6l-5.2-8.1l8,0.1l0.1-15.3
						c0-5.2-1.7-6.9-4.6-6.9c-2.9,0-4.7,1.6-4.7,6.8L394.1,82c0,5.1,1.7,6.9,4.6,6.9C399.4,88.9,400.1,88.7,400.7,88.6z"/>
				</g>
				<g>
					<path class="st1" d="M439.9,54.1l-6.5,31.7c-0.9,4.5,0.3,6.4,3,7c2.6,0.5,4.6-0.7,5.5-5.2l6.5-31.7l10.4,2.1l-6.4,31.4
						c-2.1,10.2-8.7,14.1-17.7,12.2c-9.1-1.9-13.6-8.1-11.5-18.2l6.4-31.4L439.9,54.1z"/>
				</g>
				<g>
					<path class="st1" d="M477.9,114.8l-21.6-8.7l17.4-43.3l21.6,8.7l-3.4,8.4L480,75.1l-3.5,8.7l10.7,4.3l-3.4,8.4l-10.7-4.3
						l-3.8,9.5l11.9,4.8L477.9,114.8z"/>
				</g>
				<g>
					<path class="st1" d="M483.5,117.5l24.7-39.6l13.2,8.2c6.8,4.2,9.4,10.9,5.2,17.6l-0.9,1.5c-3.1,4.9-7.7,6.4-12.5,5.3l-3.8,23.1
						l-9.9-6.2l5-23.9L492.4,123L483.5,117.5z M512.5,90.9l-6.3,10.1l3.1,1.9c2.5,1.5,4.9,1.1,7.1-2.5l0.5-0.7
						c2-3.3,1.2-5.4-1.2-6.9L512.5,90.9z"/>
				</g>
				<g>
					<path class="st1" d="M513.3,137.5l30.2-35.6l8.1,6.8l-30.2,35.6L513.3,137.5z"/>
				</g>
				<g>
					<path class="st1" d="M576.2,134.2l-30,36.5l-6.7-7.6l5.5-6.4l-5.7-6.4l-7,4.7l-6.7-7.6l39.8-25.5L576.2,134.2z M550.7,150
						l14.9-17.4l-19,12.8L550.7,150z"/>
				</g>
			</g>
		</g>
	</g>
	<g>
		<path class="st0" d="M397.5,546.6c-117.3,0-216.6-76.3-251.3-182h-18.3C163.2,479.9,270.7,564,397.5,564s234.3-84.1,269.6-199.4
			h-18.3C614.1,470.2,514.8,546.6,397.5,546.6z"/>
		<path class="st0" d="M397.5,17.4c117.3,0,216.6,76.3,251.3,182h18.3C631.8,84.1,524.3,0,397.5,0C270.7,0,163.2,84.1,127.9,199.4
			h18.3C180.9,93.8,280.2,17.4,397.5,17.4z"/>
		<path class="st0" d="M397.5,130.4c-34.5,0-66.3,11.6-91.8,31.1c1.9-0.5,4-0.9,6.1-0.9h0c6.4,0,12.1,2.5,16.1,6.7
			c20.3-12.3,44.1-19.4,69.6-19.4c42.9,0,81.1,20.2,105.7,51.6h21.4C497.4,157.9,450.6,130.4,397.5,130.4z"/>
		<path class="st0" d="M397.5,433.6c53.1,0,99.9-27.5,127-69h-21.4c-24.6,31.4-62.7,51.6-105.7,51.6c-38.8,0-73.6-16.5-98.1-42.7
			l-24.2-2.1C302.7,409,347.3,433.6,397.5,433.6z"/>
		<path class="st2" d="M258.3,446.5l9.6-9.1c-23.5-19.6-42.5-44.5-55.2-72.8h-14.3C211.6,396.4,232.3,424.5,258.3,446.5z"/>
		<path class="st2" d="M220.9,158.5c-8.9,12.7-16.5,26.4-22.5,40.9h14.2c5-11.2,11.1-22,18-32L220.9,158.5z"/>
		<path class="st2" d="M516.9,445.4l0.6,7l6.2,4.2c32.1-23.2,57.5-55.1,73-92.1h-14.2C567.9,396.9,545.2,424.7,516.9,445.4z"/>
		<path class="st2" d="M565.3,168.7c6.6,9.7,12.3,20,17.1,30.8h14.2c-6.1-14.6-13.7-28.4-22.7-41.2L565.3,168.7z"/>
	</g>
	<g>
		<g>
			<g>
				<path class="st0" d="M85.5,260.6v42.7c0,30.5-16.6,45.4-43.6,45.4H0V215.2h41.9C68.9,215.2,85.5,230.2,85.5,260.6z M55.2,304.3
					v-44.5c0-14.1-5-18.7-13.4-18.7H30.3V323h11.6C50.2,323,55.2,318.3,55.2,304.3z"/>
			</g>
		</g>
		<g>
			<g>
				<path class="st0" d="M164.4,348.8H97.8V215.2h66.6V241h-36.7v26.7h33.1v25.8h-33.1V323h36.7V348.8z"/>
			</g>
		</g>
		<g>
			<g>
				<g>
					<path class="st1" d="M230,348.8h-54.5V215.2h30.3V323h34.9L230,348.8z"/>
				</g>
			</g>
		</g>
		<g>
			<g>
				<path class="st0" d="M442.7,291.8v13.4c0,31-16.6,46.3-43.6,46.3c-27.1,0-43.6-15.3-43.6-46.3v-46.3c0-31,16.6-46.3,43.6-46.3
					c27.1,0,43.6,15.3,43.6,46.3v11.6h-30.3V258c0-14.8-5-19.6-13.4-19.6c-8.2,0-13.4,4.8-13.4,19.6V306c0,14.6,5,19.6,13.4,19.6
					c8.4,0,13.4-5,13.4-19.6v-14.2H442.7z"/>
			</g>
		</g>
		<g>
			<path class="st2" d="M352.8,357.1l-35.6-176c-0.9-4.6-8.5-5.3-10.2-1l-67.7,166.3c-1.1,2.7,1.1,5.7,4.6,6.1l103.3,9.7
				C350.6,362.5,353.4,360,352.8,357.1z M267.8,341.3c-3.9,0-7-3.1-7-7c0-3.9,3.1-7,7-7c3.9,0,7,3.1,7,7
				C274.8,338.2,271.7,341.3,267.8,341.3z M276.9,311.5c-2.4,0-4.3-1.9-4.3-4.3c0-2.4,1.9-4.3,4.3-4.3c2.4,0,4.3,1.9,4.3,4.3
				C281.2,309.6,279.3,311.5,276.9,311.5z M284.6,344.4c-1.7,0-3.1-1.4-3.1-3.1s1.4-3.1,3.1-3.1s3.1,1.4,3.1,3.1
				S286.3,344.4,284.6,344.4z M287,327.8c-3,0-5.4-2.4-5.4-5.4s2.4-5.4,5.4-5.4c3,0,5.4,2.4,5.4,5.4S290,327.8,287,327.8z"/>
		</g>
		<g>
			<g>
				<path class="st0" d="M453.8,305.2v-46.3c0-31,16.6-46.3,43.6-46.3c27.1,0,43.6,15.3,43.6,46.3v46.3c0,31-16.6,46.3-43.6,46.3
					C470.4,351.5,453.8,336.1,453.8,305.2z M510.8,306V258c0-14.8-5-19.6-13.4-19.6c-8.2,0-13.4,4.8-13.4,19.6V306
					c0,14.8,5,19.6,13.4,19.6C505.8,325.6,510.8,320.8,510.8,306z"/>
			</g>
		</g>
		<g>
			<g>
				<path class="st0" d="M590,212.5c21,0,37.6,11.6,37.6,35.6v9.8h-28v-9.3c0-8.2-3.7-12.1-9.6-12.1c-5.3,0-9.3,3.4-9.3,9.6
					c0,8.7,5.2,12.6,13.9,19.2l14.8,11.4c11.4,8.5,19.9,19.4,19.9,36.7c0,25.5-17.6,37.9-39.2,37.9c-21.6,0-39.2-12.6-39.2-35.6
					v-11.6h28.5v10.3c0,7.8,4.3,12.8,10.7,12.8c6.6,0,10.5-3.9,10.5-10.3c0-9.1-5.3-13.2-14.6-20.3l-14.2-10.9
					c-11.6-8.7-19.6-19.4-19.6-37.6C552.2,222.7,569.3,212.5,590,212.5z"/>
			</g>
		</g>
		<g>
			<g>
				<g>
					<path class="st0" d="M657.1,348.8V241h-21.7v-25.8h73.7V241h-21.7v107.8H657.1z"/>
				</g>
			</g>
			<g>
				<g>
					<path class="st0" d="M774,215.2l21,133.6h-29l-3.2-24h-24.6l-3.2,24h-29l21-133.6H774z M759.4,299.8l-8.9-65l-8.9,65H759.4z"/>
				</g>
			</g>
		</g>
	</g>
	<g>
		<path class="st1" d="M402.2,492.4c-0.2-3.9,2.4-7,6.2-7.2c3.8-0.2,6.4,2.5,6.8,6.5c0.2,3.9-2.2,7-6.2,7.2
			C405.1,499.1,402.3,496.3,402.2,492.4z"/>
	</g>
</g>
</svg>
